<svg width="100" height="100" viewBox="0 0 100 100" fill="none" xmlns="http://www.w3.org/2000/svg" xmlns:c2pa="http://c2pa.org/manifest"><metadata><c2pa:manifest>AAAWgmp1bWIAAAAeanVtZGMycGEAEQAQgAAAqgA4m3EDYzJwYQAAABZcanVtYgAAAEdqdW1kYzJtYQARABCAAACqADibcQN1cm46YzJwYTo1MjBiNWIxYi1hNzBlLTQ3ZWMtODAyNS01NDRlNGYyNmVlMjAAAAADl2p1bWIAAAApanVtZGMyYXMAEQAQgAAAqgA4m3EDYzJwYS5hc3NlcnRpb25zAAAAALxqdW1iAAAARGp1bWRjYm9yABEAEIAAAKoAOJtxE2MycGEuaW5ncmVkaWVudC52MwAAAAAYYzJzaBT22ugLmKvpzAYAKq1NhD8AAABwY2JvcqNpZGM6Zm9ybWF0bWltYWdlL3N2Zyt4bWxqaW5zdGFuY2VJRHgseG1wOmlpZDo0ZjI4NTIwMC03YzMxLTRkMjAtYmYwNi00ZWRhZGZiMTdmY2RscmVsYXRpb25zaGlwaHBhcmVudE9mAAAB4mp1bWIAAABBanVtZGNib3IAEQAQgAAAqgA4m3ETYzJwYS5hY3Rpb25zLnYyAAAAABhjMnNodOrtBAJuCo2dIiA8yK/DPQAAAZljYm9yomdhY3Rpb25zgqJmYWN0aW9ua2MycGEub3BlbmVkanBhcmFtZXRlcnOha2luZ3JlZGllbnRzgaJjdXJseC1zZWxmI2p1bWJmPWMycGEuYXNzZXJ0aW9ucy9jMnBhLmluZ3JlZGllbnQudjNkaGFzaFggK416FyqZDWI7NKky4ViLXxoZS+yvKb5yGUzOWdEBUd2kZmFjdGlvbngdY29tLmFudGhyb3BpYy5jbGF1ZGUucHJvdmlkZWRqcGFyYW1ldGVyc6F4H2NvbS5hbnRocm9waWMub3JpZ2luLWNvbmZpZGVuY2VndW5rbm93bmtkZXNjcmlwdGlvbnhmQ2xhdWRlIHByb3ZpZGVkIHRoaXMgZmlsZSBhdCB0aGUgcmVxdWVzdCBvZiBhIHVzZXIgYW5kIG1heSBoYXZlIGNyZWF0ZWQgb3IgbW9kaWZpZWQgdGhlIGZpbGUgY29udGVudHMubXNvZnR3YXJlQWdlbnShZG5hbWVmQ2xhdWRlcmFsbEFjdGlvbnNJbmNsdWRlZPUAAADIanVtYgAAAEBqdW1kY2JvcgARABCAAACqADibcRNjMnBhLmhhc2guZGF0YQAAAAAYYzJzaFSHQ/TJmOvvWFYPcmllz94AAACAY2JvcqVjYWxnZnNoYTI1NmNwYWRNAAAAAAAAAAAAAAAAAGRoYXNoWCAZy3GIm7HUmMTSEJjTKfpyOWuninFqlmbp9QEfWcKogGRuYW1lbmp1bWJmIG1hbmlmZXN0amV4Y2x1c2lvbnOBomVzdGFydBiiZmxlbmd0aBkeBAAAAj5qdW1iAAAAJ2p1bWRjMmNsABEAEIAAAKoAOJtxA2MycGEuY2xhaW0udjIAAAACD2Nib3KlY2FsZ2ZzaGEyNTZpc2lnbmF0dXJleE1zZWxmI2p1bWJmPS9jMnBhL3VybjpjMnBhOjUyMGI1YjFiLWE3MGUtNDdlYy04MDI1LTU0NGU0ZjI2ZWUyMC9jMnBhLnNpZ25hdHVyZWppbnN0YW5jZUlEeCx4bXA6aWlkOjBhOGQ3ZjU1LTJhMjAtNGQ5OS1hODZkLTQ5ZDc1NjVmNzdjOXJjcmVhdGVkX2Fzc2VydGlvbnODomN1cmx4LXNlbGYjanVtYmY9YzJwYS5hc3NlcnRpb25zL2MycGEuaW5ncmVkaWVudC52M2RoYXNoWCArjXoXKpkNYjs0qTLhWItfGhlL7K8pvnIZTM5Z0QFR3aJjdXJseCpzZWxmI2p1bWJmPWMycGEuYXNzZXJ0aW9ucy9jMnBhLmFjdGlvbnMudjJkaGFzaFggf/YQcDbvHKfpz7odYZsitvUg9tRbrvcYffQilt6oSrmiY3VybHgpc2VsZiNqdW1iZj1jMnBhLmFzc2VydGlvbnMvYzJwYS5oYXNoLmRhdGFkaGFzaFggXc/VulplKTFHLn+NQlcRIr+uOUkkbA2Cc4ceLjfaAbt0Y2xhaW1fZ2VuZXJhdG9yX2luZm+jZG5hbWVvQW50aHJvcGljIEZpbGVzZ3ZlcnNpb25lMS4wLjBrc3BlY1ZlcnNpb25lMi40LjAAABA4anVtYgAAAChqdW1kYzJjcwARABCAAACqADibcQNjMnBhLnNpZ25hdHVyZQAAABAIY2JvctKEWQISogEmGCFZAgowggIGMIIBjaADAgECAhRA5aAK7sI50L64g/oGQgU9Z1UTADAKBggqhkjOPQQDAzBJMRcwFQYDVQQKEw5BbnRocm9waWMsIFBCQzEuMCwGA1UEAxMlQW50aHJvcGljIENvbnRlbnQgQ3JlZGVudGlhbHMgUm9vdCBDQTAeFw0yNjA4MDcxODQzNTZaFw0yODA4MDYxOTQzNTZaMEQxFzAVBgNVBAoTDkFudGhyb3BpYywgUEJDMSkwJwYDVQQDEyBBbnRocm9waWMgQ2xhdWRlIENvbnRlbnQgU2lnbmluZzBZMBMGByqGSM49AgEGCCqGSM49AwEHA0IABJh6CmvLUBgFFNU0vUKlOVtE6djd17L5SuwX0LemFisBM3dkd/3cyjxFA3Qo5S46fX0/ihY0VZ7mfb9KF703t5OjWDBWMA4GA1UdDwEB/wQEAwIHgDAVBgNVHSUEDjAMBgorBgEEAYPoXgIBMAwGA1UdEwEB/wQCMAAwHwYDVR0jBBgwFoAUzlHiBIFOZFsj+OPEz5o+nMHXXMIwCgYIKoZIzj0EAwMDZwAwZAIwMXMdFJ4BetLLVY7ORuE9noqbbAZOZn/aArXyTwFAZfKrPzxF2vPoJNf1+UCdg1XGAjBwX1zd9WGqYkqmL5SFqw1QySjr1zJfpJM9+1rdDwSPLMOPOjKuiXjoU/pUUeG9RwmhY3BhZFkNngAAAAAAAAAAAAAAAAAAAAAAAAAAAAAAAAAAAAAAAAAAAAAAAAAAAAAAAAAAAAAAAAAAAAAAAAAAAAAAAAAAAAAAAAAAAAAAAAAAAAAAAAAAAAAAAAAAAAAAAAAAAAAAAAAAAAAAAAAAAAAAAAAAAAAAAAAAAAAAAAAAAAAAAAAAAAAAAAAAAAAAAAAAAAAAAAAAAAAAAAAAAAAAAAAAAAAAAAAAAAAAAAAAAAAAAAAAAAAAAAAAAAAAAAAAAAAAAAAAAAAAAAAAAAAAAAAAAAAAAAAAAAAAAAAAAAAAAAAAAAAAAAAAAAAAAAAAAAAAAAAAAAAAAAAAAAAAAAAAAAAAAAAAAAAAAAAAAAAAAAAAAAAAAAAAAAAAAAAAAAAAAAAAAAAAAAAAAAAAAAAAAAAAAAAAAAAAAAAAAAAAAAAAAAAAAAAAAAAAAAAAAAAAAAAAAAAAAAAAAAAAAAAAAAAAAAAAAAAAAAAAAAAAAAAAAAAAAAAAAAAAAAAAAAAAAAAAAAAAAAAAAAAAAAAAAAAAAAAAAAAAAAAAAAAAAAAAAAAAAAAAAAAAAAAAAAAAAAAAAAAAAAAAAAAAAAAAAAAAAAAAAAAAAAAAAAAAAAAAAAAAAAAAAAAAAAAAAAAAAAAAAAAAAAAAAAAAAAAAAAAAAAAAAAAAAAAAAAAAAAAAAAAAAAAAAAAAAAAAAAAAAAAAAAAAAAAAAAAAAAAAAAAAAAAAAAAAAAAAAAAAAAAAAAAAAAAAAAAAAAAAAAAAAAAAAAAAAAAAAAAAAAAAAAAAAAAAAAAAAAAAAAAAAAAAAAAAAAAAAAAAAAAAAAAAAAAAAAAAAAAAAAAAAAAAAAAAAAAAAAAAAAAAAAAAAAAAAAAAAAAAAAAAAAAAAAAAAAAAAAAAAAAAAAAAAAAAAAAAAAAAAAAAAAAAAAAAAAAAAAAAAAAAAAAAAAAAAAAAAAAAAAAAAAAAAAAAAAAAAAAAAAAAAAAAAAAAAAAAAAAAAAAAAAAAAAAAAAAAAAAAAAAAAAAAAAAAAAAAAAAAAAAAAAAAAAAAAAAAAAAAAAAAAAAAAAAAAAAAAAAAAAAAAAAAAAAAAAAAAAAAAAAAAAAAAAAAAAAAAAAAAAAAAAAAAAAAAAAAAAAAAAAAAAAAAAAAAAAAAAAAAAAAAAAAAAAAAAAAAAAAAAAAAAAAAAAAAAAAAAAAAAAAAAAAAAAAAAAAAAAAAAAAAAAAAAAAAAAAAAAAAAAAAAAAAAAAAAAAAAAAAAAAAAAAAAAAAAAAAAAAAAAAAAAAAAAAAAAAAAAAAAAAAAAAAAAAAAAAAAAAAAAAAAAAAAAAAAAAAAAAAAAAAAAAAAAAAAAAAAAAAAAAAAAAAAAAAAAAAAAAAAAAAAAAAAAAAAAAAAAAAAAAAAAAAAAAAAAAAAAAAAAAAAAAAAAAAAAAAAAAAAAAAAAAAAAAAAAAAAAAAAAAAAAAAAAAAAAAAAAAAAAAAAAAAAAAAAAAAAAAAAAAAAAAAAAAAAAAAAAAAAAAAAAAAAAAAAAAAAAAAAAAAAAAAAAAAAAAAAAAAAAAAAAAAAAAAAAAAAAAAAAAAAAAAAAAAAAAAAAAAAAAAAAAAAAAAAAAAAAAAAAAAAAAAAAAAAAAAAAAAAAAAAAAAAAAAAAAAAAAAAAAAAAAAAAAAAAAAAAAAAAAAAAAAAAAAAAAAAAAAAAAAAAAAAAAAAAAAAAAAAAAAAAAAAAAAAAAAAAAAAAAAAAAAAAAAAAAAAAAAAAAAAAAAAAAAAAAAAAAAAAAAAAAAAAAAAAAAAAAAAAAAAAAAAAAAAAAAAAAAAAAAAAAAAAAAAAAAAAAAAAAAAAAAAAAAAAAAAAAAAAAAAAAAAAAAAAAAAAAAAAAAAAAAAAAAAAAAAAAAAAAAAAAAAAAAAAAAAAAAAAAAAAAAAAAAAAAAAAAAAAAAAAAAAAAAAAAAAAAAAAAAAAAAAAAAAAAAAAAAAAAAAAAAAAAAAAAAAAAAAAAAAAAAAAAAAAAAAAAAAAAAAAAAAAAAAAAAAAAAAAAAAAAAAAAAAAAAAAAAAAAAAAAAAAAAAAAAAAAAAAAAAAAAAAAAAAAAAAAAAAAAAAAAAAAAAAAAAAAAAAAAAAAAAAAAAAAAAAAAAAAAAAAAAAAAAAAAAAAAAAAAAAAAAAAAAAAAAAAAAAAAAAAAAAAAAAAAAAAAAAAAAAAAAAAAAAAAAAAAAAAAAAAAAAAAAAAAAAAAAAAAAAAAAAAAAAAAAAAAAAAAAAAAAAAAAAAAAAAAAAAAAAAAAAAAAAAAAAAAAAAAAAAAAAAAAAAAAAAAAAAAAAAAAAAAAAAAAAAAAAAAAAAAAAAAAAAAAAAAAAAAAAAAAAAAAAAAAAAAAAAAAAAAAAAAAAAAAAAAAAAAAAAAAAAAAAAAAAAAAAAAAAAAAAAAAAAAAAAAAAAAAAAAAAAAAAAAAAAAAAAAAAAAAAAAAAAAAAAAAAAAAAAAAAAAAAAAAAAAAAAAAAAAAAAAAAAAAAAAAAAAAAAAAAAAAAAAAAAAAAAAAAAAAAAAAAAAAAAAAAAAAAAAAAAAAAAAAAAAAAAAAAAAAAAAAAAAAAAAAAAAAAAAAAAAAAAAAAAAAAAAAAAAAAAAAAAAAAAAAAAAAAAAAAAAAAAAAAAAAAAAAAAAAAAAAAAAAAAAAAAAAAAAAAAAAAAAAAAAAAAAAAAAAAAAAAAAAAAAAAAAAAAAAAAAAAAAAAAAAAAAAAAAAAAAAAAAAAAAAAAAAAAAAAAAAAAAAAAAAAAAAAAAAAAAAAAAAAAAAAAAAAAAAAAAAAAAAAAAAAAAAAAAAAAAAAAAAAAAAAAAAAAAAAAAAAAAAAAAAAAAAAAAAAAAAAAAAAAAAAAAAAAAAAAAAAAAAAAAAAAAAAAAAAAAAAAAAAAAAAAAAAAAAAAAAAAAAAAAAAAAAAAAAAAAAAAAAAAAAAAAAAAAAAAAAAAAAAAAAAAAAAAAAAAAAAAAAAAAAAAAAAAAAAAAAAAAAAAAAAAAAAAAAAAAAAAAAAAAAAAAAAAAAAAAAAAAAAAAAAAAAAAAAAAAAAAAAAAAAAAAAAAAAAAAAAAAAAAAAAAAAAAAAAAAAAAAAAAAAAAAAAAAAAAAAAAAAAAAAAAAAAAAAAAAAAAAAAAAAAAAAAAAAAAAAAAAAAAAAAAAAAAAAAAAAAAAAAAAAAAAAAAAAAAAAAAAAAAAAAAAAAAAAAAAAAAAAAAAAAAAAAAAAAAAAAAAAAAAAAAAAAAAAAAAAAAAAAAAAAAAAAAAAAAAAAAAAAAAAAAAAAAAAAAAAAAAAAAAAAAAAAAAAAAAAAAAAAAAAAAAAAAAAAAAAAAAAAAAAAAAAAAAAAAAAAAAAAAAAAAAAAAAAAAAAAAAAAAAAAAAAAAAAAAAAAAAAAAAAAAAAAAAAAAAAAAAAAAAAAAAAAAAAAAAAAAAAAAAAAAAAAAAAAAAAAAAAAAAAAAAAAAAAAAAAAAAAAAAAAAAAAAAAAAAAAAAAAAAAAAAAAAAAAAAAAAAAAAAAAAAAAAAAAAAAAAAAAAAAAAAAAAAAAAAAAAAAAAAAAAAAAAAAAAAAAAAAAAAAAAAAAAAAAAAAAAAAAAAAAAAAAAAAAAAAAAAAAAAAAAAAAAAAAAAAAAAAAAAAAAAAAAAAAAAAAAAAAAAAAAAAAAAAAAAAAAAAAAAAAAAAAAAAAAAAAAAAAAAAAAAAAAAAAAAAAAAAAAAAAAAAAAAAAAAAAAAAAAAAAAAAAAAAAAAAAAAAAAAAAAAAAAAAAAAAAAAAAAAAAAAAAAAAAAAAAAAAAAAAAAAAAAAAAAAAAAAAAAAAAAAAAAAAAAAAAAAAAAAAAAAAAAAAAAAAAAAAAAAAAAAAAAAAAAAAAAAAAAAAAAAAAAAAAAAAAAAAAAAAAAAAAAAAAAAAAAAAAAAAAAAAAAAAAAAAAAAAAAAAAAAAAAAAAAAAAAAAAAAAAAAAAAAAAAAAAAAAAAAAAAAAAAAAAAAAAAAAAAAAAAAAAAAAAAAAAAAAAAAAAAAAAAAAAAAAAAAAAAAAAAAAAAAAAAAAAAAAAAAAAAAAAAAAAAAAAAAAAAAAAAAAAAAAAAAAAAAAAAAAAAAAAAAAAAAAAAAAAAAAAAAAAAAAAAAAAAAAAAAAAAAAAAAAAAAAAAAAAAAAAAAAAAAAAAAAAAAAAAAAAAAAAAAAAAAAAAAAAAAAAAAAAAAAAAAAAAAAAAAAAAAAAAAAAAAAAAAAAAAAAAAAAAAAAAAAAAAAAAAAAAAAAAAAAAAAAAAAAAAAAAAAAAAAAAAAAAAAAAAAAAAAAAAAAAAAAAAAAAAAAAAAAAAAAAAAAAAAAAAAAAAAAAAAAAAAAAAAAAAAAAAAAAAAAAAAAAAAAAAAAAAAAAAAAAAAAAAAAAAAAAAAAAAAAAAAAAAAAAAAAAAAAAAAAAAAAAAAAAAAAAAAAAAAAAAAAAAAAAAAAAAAAAAAAAAAAAAAAAAAAAAAAAAAAAAAAAAAAAAAAAAAAAAAAAAAAAAAAAAAAAAAAAAAAAAAAAAAAAAAAAAAAAAAAAAAAAAAAAAAAAAAAAAAAAAAAAAAAAAAAAAAAAAAAAAAAAAAAAAAAAAAAAAAAAAAAAAAAAAAAAAPZYQG1apWSejGQ9lJ0XUOojWQxuNytjRf0zHrLYMX6S417ndL9yZxriM0Lj4/iqPFSJonOVfO9QPLOdo4qFWMcevh8=</c2pa:manifest></metadata>
<path d="M38.2523 12.4823C38.233 12.2933 38.2195 12.1036 38.2121 11.9138C38.0872 8.5962 39.971 6.04336 43.4555 6.04748C46.778 6.05141 50.1068 6.03768 53.4294 6.04306C55.0454 6.10054 56.6379 5.8528 58.1999 6.35541C60.1831 6.99355 61.3431 8.75656 61.3819 10.7969C61.4431 11.7333 61.4134 16.2858 61.2926 17.1689C74.9576 22.1623 84.2222 34.9522 84.7071 49.4928C85.192 64.0334 76.8001 77.4122 63.4981 83.3049C63.2199 83.4281 62.9401 83.5479 62.6588 83.664C50.5525 88.6605 36.6818 86.623 26.5239 78.356C16.3659 70.0889 11.5536 56.9212 13.9871 44.0523C16.4206 31.1835 25.7088 20.6822 38.184 16.6951C38.1659 15.3087 38.1243 13.8582 38.2523 12.4823Z" fill="#F7B113"></path>
<path d="M38.2523 12.4823C38.233 12.2933 38.2195 12.1036 38.2121 11.9138C38.0872 8.5962 39.971 6.04336 43.4556 6.04748C46.778 6.05141 50.1068 6.03768 53.4294 6.04306C55.0454 6.10054 56.6379 5.8528 58.1999 6.35541C60.1831 6.99355 61.3432 8.75656 61.3819 10.7969C61.4432 11.7333 61.4135 16.2858 61.2927 17.1689C60.1117 16.7373 58.9088 16.3686 57.6889 16.064C52.5942 14.7921 47.2816 14.6604 42.1303 15.6781C40.7965 15.9417 39.479 16.2813 38.184 16.6951C38.1659 15.3087 38.1243 13.8582 38.2523 12.4823Z" fill="#FED848"></path>
<path d="M38.2524 12.4823C38.233 12.2933 38.2196 12.1036 38.2121 11.9138C38.0872 8.5962 39.971 6.04336 43.4556 6.04748C46.7781 6.05141 50.1069 6.03768 53.4294 6.04306C55.0454 6.10054 56.6379 5.8528 58.1999 6.35541C60.1831 6.99355 61.3432 8.75656 61.382 10.7969C61.3087 11.04 61.3205 11.4092 61.2343 11.7638C60.3456 11.9753 59.1532 10.0953 57.7319 10.3169L57.7061 10.249C56.9536 9.93506 56.26 9.54848 55.4402 9.43113C53.8608 9.20511 44.5265 9.2195 43.3244 9.7008C42.8686 9.8833 42.5717 10.302 42.2096 10.6182L42.1695 10.2471C40.5364 10.1283 39.2931 11.4012 38.2524 12.4823Z" fill="#FDC81E"></path>
<path d="M42.1694 10.2471C42.2443 8.509 42.477 7.64656 44.4662 7.62681C48.3533 7.5882 52.2712 7.50941 56.1531 7.65474C57.6981 7.71257 57.6755 9.08151 57.7061 10.249C56.9536 9.93506 56.26 9.54848 55.4401 9.43113C53.8607 9.20511 44.5265 9.2195 43.3244 9.7008C42.8686 9.8833 42.5717 10.302 42.2096 10.6182L42.1694 10.2471Z" fill="#FEEFA9"></path>
<path d="M38.2523 12.4823C39.2931 11.4011 40.5363 10.1283 42.1694 10.247L42.2096 10.6181C42.0273 11.3459 42.1903 14.6975 42.1303 15.6781C40.7965 15.9417 39.479 16.2812 38.184 16.6951C38.1659 15.3087 38.1243 13.8582 38.2523 12.4823Z" fill="#F7AD10"></path>
<path d="M57.7318 10.3169C59.1531 10.0953 60.3456 11.9753 61.2343 11.7638C61.3205 11.4092 61.3087 11.04 61.3819 10.7969C61.4431 11.7333 61.4135 16.2858 61.2927 17.1689C60.1117 16.7373 58.9088 16.3686 57.6888 16.064L57.7318 10.3169Z" fill="#F7AD10"></path>
<path d="M19.44 34.3469C25.0601 24.0773 35.5939 17.4467 47.2841 16.8202C58.9742 16.1939 70.1562 21.6609 76.8416 31.2712C86.3587 44.9521 84.4844 63.5278 72.4263 75.032C60.3682 86.536 41.7247 87.5349 28.5063 77.3853C15.288 67.2357 11.4394 48.9664 19.44 34.3469Z" fill="#FED848"></path>
<path d="M19.4401 34.3469C25.0602 24.0773 35.594 17.4467 47.2841 16.8202C58.9742 16.1939 70.1563 21.6609 76.8416 31.2712L76.5398 31.2445C75.2107 29.642 74.0406 28.0163 72.5504 26.5551C57.8805 12.1701 31.7645 15.618 20.8026 32.7854C20.5149 33.2359 19.9467 34.3356 19.4401 34.3469Z" fill="#FEEFA9"></path>
<path d="M20.2772 61.3312C19.9181 60.151 19.532 59.1606 19.223 57.92C18.339 54.3711 18.2252 50.9176 18.6367 47.3027C19.5399 39.5378 23.4629 32.4402 29.5577 27.5448C36.7406 21.8555 45.4891 19.8013 54.4959 20.9354C61.8473 21.8612 68.9861 25.9219 73.5132 31.7693C78.8734 38.6927 80.453 46.7242 79.3965 55.2754C79.8335 55.9401 79.4786 56.5493 78.9826 57.0646L78.923 57.2907L79.1287 57.4277C79.2243 57.9383 78.7431 59.8065 78.4606 60.243C75.7205 68.2132 70.43 74.5646 62.8002 78.2359C55.4709 81.7626 45.946 82.0746 38.3074 79.4432C30.8563 76.9229 24.7158 71.5387 21.2437 64.4808C20.9654 63.9085 19.9883 61.8903 20.2772 61.3312Z" fill="#C66E02"></path>
<path d="M77.9243 60.637C78.1635 60.5297 78.1105 60.4077 78.3302 60.1208L78.4605 60.243C75.7205 68.2132 70.43 74.5646 62.8002 78.2359C55.4709 81.7626 45.946 82.0746 38.3073 79.4431C30.8562 76.9229 24.7158 71.5387 21.2436 64.4807C20.9653 63.9085 19.9883 61.8903 20.2771 61.3312C31.2604 87.2015 67.3548 87.0266 77.9243 60.637Z" fill="#FEEFA9"></path>
<path d="M78.923 57.2907L79.1287 57.4277C79.2242 57.9383 78.7431 59.8065 78.4605 60.2431L78.3302 60.1208C78.1105 60.4077 78.1635 60.5297 77.9243 60.637C78.3131 59.4611 78.6174 58.4894 78.923 57.2907Z" fill="#FCDA66"></path>
<path d="M79.3965 55.2754C79.8335 55.9401 79.4786 56.5493 78.9826 57.0646C79.0718 56.4134 79.2223 55.9069 79.3965 55.2754Z" fill="#FCDA66"></path>
<path d="M48.1919 22.9068C48.5661 22.8781 48.941 22.8604 49.3163 22.8538C65.4894 22.6377 77.4662 34.4939 77.6498 50.5803C77.8235 65.7904 64.7792 78.5445 49.801 78.7267C42.2474 78.7956 35.7885 76.4599 30.0825 71.6667C12.983 57.3027 20.1104 29.7938 41.0632 24.0207C43.6045 23.3205 45.6146 23.0679 48.1919 22.9068Z" fill="#F7AD10"></path>
<path d="M50.0931 26.365C50.6896 26.4178 51.0736 26.6475 51.4643 27.0848C52.3889 28.1198 52.6051 30.5742 53.4655 31.5144C56.3093 34.6338 63.9138 38.3729 63.462 43.2165C63.1098 46.9927 59.6344 51.373 57.6223 54.4823C56.7611 55.8133 54.5661 61.0532 55.407 62.4715C56.5503 62.9197 61.6651 59.7353 65.435 61.5986C66.3925 62.0718 67.1306 62.8239 67.5577 63.8049C68.0036 64.8288 67.9566 66.0356 67.5361 67.0595C66.4377 69.7339 63.1326 71.5477 60.6008 72.5709C59.492 73.019 58.3806 73.3714 57.1897 73.5075C55.0368 73.7536 52.8258 73.4644 50.6628 73.4373C47.6511 73.3995 44.5519 73.6379 41.5643 73.2567C40.08 73.0636 38.6292 72.6674 37.2527 72.0791C34.9374 71.0875 32.3244 69.4775 31.3353 67.0405C30.3662 64.6526 31.6828 62.2858 34.0377 61.4425C36.566 60.537 39.1715 61.196 41.619 62.0405C42.0094 62.1754 42.6427 62.4125 43.0511 62.4344C43.194 62.4421 43.4694 62.1506 43.4901 62.026C43.6556 60.0581 42.6574 57.6355 41.939 55.8193C41.4502 54.5836 40.4826 53.2892 39.7044 52.2297C37.8465 49.7004 34.3747 44.4174 35.6342 41.1834C37.1095 37.8634 40.5638 35.6871 43.2669 33.4259C44.0578 32.7642 44.6298 32.4356 45.3432 31.6985C46.616 30.3834 46.8602 26.6015 49.0049 26.4906C49.4908 26.338 49.5804 26.3373 50.0931 26.365Z" fill="#FCF4DC"></path>
<path d="M50.0931 26.3651C50.6896 26.4178 51.0736 26.6475 51.4643 27.0848C52.3889 28.1198 52.6051 30.5742 53.4655 31.5145C56.3093 34.6338 63.9138 38.373 63.462 43.2165C63.1098 46.9927 59.6344 51.3731 57.6223 54.4823C56.7611 55.8133 54.5661 61.0532 55.407 62.4715C56.5503 62.9197 61.6651 59.7354 65.435 61.5986C66.3925 62.0718 67.1306 62.8239 67.5577 63.8049C68.0036 64.8288 67.9566 66.0357 67.5361 67.0595C66.4377 69.7339 63.1326 71.5478 60.6008 72.5709C59.492 73.0191 58.3806 73.3714 57.1897 73.5075C55.0368 73.7536 52.8258 73.4645 50.6628 73.4373C47.6511 73.3995 44.5519 73.6379 41.5643 73.2567C40.08 73.0636 38.6292 72.6674 37.2527 72.0791C34.9374 71.0875 32.3244 69.4776 31.3353 67.0405C30.3662 64.6526 31.6828 62.2859 34.0377 61.4425C36.566 60.537 39.1715 61.196 41.619 62.0405C42.0094 62.1754 42.6427 62.4125 43.0511 62.4344C43.194 62.4421 43.4694 62.1506 43.4901 62.026C43.6556 60.0581 42.6574 57.6356 41.939 55.8194C41.4502 54.5836 40.4826 53.2893 39.7044 52.2297C37.8465 49.7004 34.3747 44.4174 35.6342 41.1834C37.1095 37.8634 40.5638 35.6871 43.2669 33.4259C44.0578 32.7642 44.6298 32.4357 45.3432 31.6985C46.616 30.3834 46.8602 26.6015 49.0049 26.4906C48.1402 27.7472 48.1366 30.4017 47.2768 31.5084C44.9301 34.5293 38.761 37.6174 37.3178 41.2403C36.4079 43.5242 39.0961 48.1445 40.3556 49.8919C41.1156 51.1821 42.3814 52.3468 43.0573 53.6677C44.1696 55.8413 45.0447 59.051 45.2807 61.494C45.3344 62.0492 44.7559 63.1132 44.6148 63.7243C45.2947 64.2247 48.4599 65.7628 49.424 66.2794C50.9364 65.4594 52.6381 64.5183 54.1718 63.7628C53.8437 63.1465 53.5987 62.515 53.5579 61.8316C53.4449 59.9381 54.8898 55.0429 55.8842 53.552C57.8552 50.5964 61.6258 45.95 61.8456 42.2657C62.0651 38.5895 54.0139 34.2351 52.0083 31.6606C51.1033 30.4989 51.2584 27.6691 50.0931 26.3651Z" fill="#C66E02"></path>
<path d="M36.4295 61.9534C41.1894 62.2451 44.6824 64.9731 48.6555 67.3089C49.7346 67.9434 50.8457 68.6579 52.0025 69.1376C52.6387 69.3987 53.292 69.6159 53.9578 69.7877C55.1574 70.0901 56.4117 70.2652 57.5974 70.6241C58.0926 70.774 58.404 70.9102 58.4634 71.4827C58.1793 72.6825 55.742 72.2021 54.8078 72.1108C52.8197 71.9343 50.8269 71.8145 48.8319 71.7517C43.7757 71.6204 39.1376 71.951 34.8204 68.6483C31.4041 66.0346 31.8364 62.4042 36.4295 61.9534Z" fill="#FCF4DC"></path>
<path d="M62.4519 61.9523C64.8071 62.0345 65.8409 62.7296 66.4532 65.0105C65.5934 68.4526 62.7107 69.9416 59.6151 71.2042C59.5351 71.0619 59.4531 70.9207 59.3692 70.7808C58.6791 69.6349 57.9329 69.4953 56.7212 69.1964C54.56 68.7828 52.5562 68.3412 50.5546 67.3843C51.2085 66.9948 52.1306 66.271 52.8084 65.8123C55.8447 63.7573 58.7341 62.2468 62.4519 61.9523Z" fill="#FCF4DC"></path>
<path d="M49.509 32.9525C49.8167 33.0004 51.0013 34.2613 51.3285 34.6192C53.5153 37.0104 56.6543 39.4022 58.1847 42.2272C58.5632 42.9257 57.0747 45.2662 56.5652 45.9057C54.539 48.4487 52.8205 49.9309 49.5357 50.36C45.4076 50.0064 41.6997 46.4782 40.7269 42.5424C42.143 39.6131 47.2622 35.5981 49.509 32.9525Z" fill="#C66E02"></path>
<path d="M47.3623 39.7258C48.7727 38.9847 50.4682 39.0365 51.8306 39.8625C53.5954 40.9324 54.4173 43.0576 53.8315 45.0365C53.2457 47.0155 51.3995 48.351 49.3366 48.2879C47.2737 48.2247 45.5126 46.779 45.0488 44.7679C44.5852 42.7567 45.5354 40.6858 47.3623 39.7258Z" fill="#FCF4DC"></path>
<path d="M44.0627 46.5745C43.5555 45.9622 42.1068 44.0748 42.4075 43.3041C43.225 41.2086 47.7589 36.6255 49.565 35.5077C51.65 37.4088 54.9317 40.4751 56.4441 42.7367C56.4751 44.3673 55.6455 45.5208 54.5519 46.7267C55.1105 45.0259 55.3704 43.8593 54.5467 42.0858C54.2107 41.3621 52.9724 40.1404 52.2816 39.9006C52.1371 39.8492 51.9817 39.8361 51.8305 39.8625C50.4681 39.0365 48.7726 38.9846 47.3623 39.7258C46.6916 39.7275 45.5579 40.413 45.1089 40.879C43.5026 42.5469 43.5375 44.5039 44.0627 46.5745Z" fill="#F7AD10"></path>
<path d="M29.267 47.9145C29.9813 47.2599 30.2734 47.001 31.2257 47.5767C32.7811 48.5171 34.257 49.6022 35.7514 50.637C36.4096 51.0927 36.6107 51.2668 36.8413 52.0135L36.9005 51.9445C37.4973 53.0578 36.5815 54.439 35.5482 54.1738C33.9626 53.7669 29.7753 51.0176 28.725 49.8567C28.6939 49.1777 28.528 48.2453 29.267 47.9145Z" fill="#FCF4DC"></path>
<path d="M28.725 49.8567C28.6939 49.1777 28.528 48.2453 29.267 47.9144C29.2849 48.3062 29.2609 48.68 29.5657 48.9662C30.179 49.5421 35.2347 53.008 35.738 52.9696C36.0795 52.9436 36.3525 52.7499 36.563 52.4913C36.6782 52.3496 36.761 52.1767 36.8413 52.0134L36.9005 51.9445C37.4973 53.0578 36.5815 54.4389 35.5482 54.1738C33.9626 53.7669 29.7753 51.0176 28.725 49.8567Z" fill="#C66E02"></path>
<path d="M62.0082 52.1492C62.297 50.9272 67.1276 47.768 68.4789 47.2687C68.7722 47.1603 69.4221 47.8351 69.6267 48.0294C69.8811 48.2 70.0379 48.3823 70.1014 48.6902C70.1946 49.1429 70.0123 49.5324 69.7568 49.8962C69.0417 50.9146 64.4595 54.0284 63.3314 54.1995C62.934 54.2599 62.6756 54.1891 62.3558 53.9483C62.0219 53.6967 61.7842 53.3291 61.7311 52.9098C61.6968 52.6379 61.7748 52.3769 61.849 52.1177L61.9672 51.9924L62.0082 52.1492Z" fill="#FCF4DC"></path>
<path d="M69.6267 48.0294C69.8811 48.2 70.0379 48.3823 70.1014 48.6902C70.1946 49.1429 70.0123 49.5324 69.7568 49.8962C69.0417 50.9146 64.4595 54.0284 63.3314 54.1995C62.934 54.2599 62.6756 54.1891 62.3558 53.9483C62.0219 53.6967 61.7842 53.3291 61.7311 52.9098C61.6968 52.6379 61.7748 52.3769 61.849 52.1177L61.9672 51.9924L62.0082 52.1492C62.2497 52.7182 62.5693 52.915 63.0554 53.2668C63.1615 53.2072 63.2667 53.1456 63.3708 53.0823C65.1729 51.9793 67.0758 50.503 68.8233 49.2782C69.3129 48.9352 69.4876 48.6015 69.6267 48.0294Z" fill="#C66E02"></path>
<path d="M27.2711 56.2704C27.5578 55.8885 27.8398 55.4722 28.3829 55.4375C30.4076 55.3082 32.77 55.2691 34.7857 55.4676C35.0005 55.4887 35.4055 55.785 35.571 55.9067C35.9937 56.2621 36.1106 56.4636 36.157 57.0167C36.2854 58.8444 33.9197 58.8313 32.6651 58.8116C31.1391 58.7877 29.7482 58.8806 28.231 58.6957C27.0166 58.5478 26.5312 56.6787 27.2711 56.2704Z" fill="#FCF4DC"></path>
<path d="M35.571 55.9066C35.9937 56.2621 36.1106 56.4636 36.157 57.0167C36.2854 58.8443 33.9197 58.8312 32.6651 58.8116C31.1391 58.7877 29.7482 58.8805 28.231 58.6957C27.0166 58.5477 26.5312 56.6787 27.2711 56.2704C27.4278 56.7582 27.5692 56.9651 27.8316 57.3936C28.9472 57.4669 34.662 57.7083 35.2944 57.1184C35.6371 56.7989 35.5752 56.3336 35.571 55.9066Z" fill="#C66E02"></path>
<path d="M63.0061 56.2741C63.3637 55.8275 63.5726 55.4832 64.1866 55.4122C65.2026 55.2948 70.214 55.1352 70.8588 55.6656C71.0653 55.8354 71.223 56.0705 71.3768 56.2871C71.4956 56.3342 71.531 56.3927 71.627 56.4871C71.8686 57.3873 71.5855 58.5043 70.5389 58.678C68.9757 58.9374 67.2481 58.7388 65.661 58.806C64.5194 58.8543 62.4388 58.6729 62.6469 57.0613C62.6989 56.6526 62.6842 56.5443 63.0061 56.2741Z" fill="#FCF4DC"></path>
<path d="M71.3768 56.2871C71.4956 56.3342 71.531 56.3927 71.627 56.4871C71.8686 57.3873 71.5855 58.5043 70.5389 58.678C68.9757 58.9374 67.2481 58.7388 65.661 58.8059C64.5194 58.8543 62.4388 58.6728 62.6469 57.0613C62.6989 56.6525 62.6842 56.5442 63.0061 56.2741C63.0987 56.5567 63.3371 57.2638 63.6947 57.3135C65.5572 57.572 67.5623 57.3836 69.4563 57.4297C70.582 57.4571 70.9952 57.4191 71.3768 56.2871Z" fill="#C66E02"></path>
</svg>